<svg width="195" height="257" viewBox="0 0 195 257" fill="none" xmlns="http://www.w3.org/2000/svg">
<g clip-path="url(#clip0_21_224)">
<path opacity="0.27" d="M189.449 195.518C192.132 194.799 193.722 192.032 193 189.337C192.277 186.642 189.517 185.04 186.834 185.759C184.151 186.478 182.561 189.245 183.284 191.94C184.006 194.635 186.766 196.237 189.449 195.518Z" fill="white"/>
<g opacity="0.27">
<path opacity="0.27" d="M55.955 232.334L54.398 231.705C53.2521 231.315 -55.5614 197.012 -71.9608 121.559C-80.5651 81.6744 -50.8181 52.783 -19.6649 43.3895C9.86898 34.4298 48.2954 40.5214 62.0943 75.1786C85.4328 133.779 56.6402 229.71 56.5779 230.773L55.955 232.334ZM-47.8792 62.4558C-63.6619 76.0991 -73.8773 96.2702 -68.635 121.016C-53.8295 189.226 40.0119 223.356 53.763 228.04C57.6004 215.157 80.2389 129.941 59.03 76.6971C45.667 43.6664 9.44522 38.0302 -18.7932 46.6427C-29.0697 49.7449 -39.3836 55.298 -47.8792 62.4558Z" fill="white"/>
<path opacity="0.27" d="M33.627 152.891C30.1765 155.559 26.7259 158.227 22.6901 160.006C-3.3564 172.912 -34.7947 161.81 -47.2987 135.871C-60.2138 109.694 -49.6364 77.9199 -23.5028 65.3386C-10.9218 59.1781 3.37785 58.1359 16.4813 62.9931C29.8214 67.4383 40.4083 77.1539 46.5732 89.7979C57.2963 111.681 51.4152 137.664 33.627 152.891ZM-44.6455 134.115C-32.9011 158.513 -3.43085 168.748 20.7596 156.687C32.4562 151.112 41.226 141.092 45.4743 128.447C49.8099 116.128 49.0012 102.746 43.0107 90.7525C37.4312 78.9977 27.4296 70.1712 14.8244 65.8779C2.54305 61.4977 -10.785 62.2795 -22.7183 68.2664C-34.4149 73.8413 -43.1846 83.8621 -47.433 96.5068C-51.0337 108.978 -50.2249 122.36 -44.6455 134.115Z" fill="white"/>
<path opacity="0.27" d="M23.1901 133.372L3.50889 142.83L-5.10944 124.916L-22.9346 133.527L-32.3127 114.073L-14.4875 105.462L-23.1058 87.5475L-3.42461 78.0898L5.19372 96.0039L23.0189 87.3922L32.4841 107.171L14.6589 115.783L23.1901 133.372ZM5.05376 138.232L18.5192 131.485L9.90088 113.571L27.7261 104.96L21.063 91.7518L3.23781 100.363L-5.38051 82.4494L-18.846 89.1955L-9.90377 107.023L-27.729 115.635L-20.9787 129.168L-3.15354 120.556L5.05376 138.232Z" fill="white"/>
</g>
</g>
<defs>
<clipPath id="clip0_21_224">
<rect width="238.389" height="202.079" fill="white" transform="translate(-88 61.6997) rotate(-15)"/>
</clipPath>
</defs>
</svg>
