<svg width="273" height="157" viewBox="0 0 273 157" fill="none" xmlns="http://www.w3.org/2000/svg">
<g clip-path="url(#clip0_21_203)">
<g opacity="0.5">
<path opacity="0.28" d="M88.6475 25.3336L111.197 35.8463L74.0164 114.949L2.06555 81.1712L39.0737 2.06799L59.041 11.3742" stroke="white" stroke-width="1.7865" stroke-miterlimit="10" stroke-linecap="square"/>
<path opacity="0.28" d="M96.1117 43.6001L42.5179 18.3925L28.7582 47.7173L82.352 72.925L96.1117 43.6001Z" stroke="white" stroke-width="1.7865" stroke-miterlimit="10" stroke-linecap="square"/>
<path opacity="0.28" d="M18.5902 71.8649C19.9672 68.9351 23.4099 67.7288 26.3361 69.1075C29.2623 70.4862 30.4672 73.9329 29.0902 76.8627C27.7131 79.7924 24.2705 80.9988 21.3443 79.6201C18.5902 78.2414 17.3853 74.7946 18.5902 71.8649Z" stroke="white" stroke-width="1.7865" stroke-miterlimit="10" stroke-linecap="square"/>
<path opacity="0.28" d="M61.4509 92.0285C62.828 89.0987 66.2706 87.8923 69.1968 89.271C72.123 90.6498 73.3279 94.0965 71.9509 97.0263C70.5738 99.956 67.1312 101.162 64.205 99.7837C61.2788 98.405 60.0739 94.9582 61.4509 92.0285Z" stroke="white" stroke-width="1.7865" stroke-miterlimit="10" stroke-linecap="square"/>
<path opacity="0.28" d="M9.63945 104.609L5.16404 102.541C2.92633 101.507 1.89355 98.7497 2.92633 96.5093L8.77879 84.101L21.5165 90.1328L15.664 102.541C14.6313 104.782 11.8772 105.816 9.63945 104.609Z" stroke="white" stroke-width="1.7865" stroke-miterlimit="10" stroke-linecap="square"/>
<path opacity="0.28" d="M53.877 125.462L49.4016 123.394C47.1639 122.36 46.1311 119.603 47.1639 117.362L53.0163 104.954L65.754 110.986L59.9016 123.394C58.8688 125.634 56.2868 126.496 53.877 125.462Z" stroke="white" stroke-width="1.7865" stroke-miterlimit="10" stroke-linecap="square"/>
<path opacity="0.28" d="M91.9047 18.1693L63.394 4.7594L57.978 16.3022L86.4886 29.7121L91.9047 18.1693Z" stroke="white" stroke-width="1.7865" stroke-miterlimit="10" stroke-linecap="square"/>
</g>
<g opacity="0.5">
<path opacity="0.26" d="M131.508 54.4589C131.508 54.4589 147.861 92.5456 138.393 123.739C128.926 154.932 96.2212 103.92 123.074 100.99C149.926 98.0604 145.106 153.036 197.951 155.621C234.098 157.345 255.959 134.079 266.115 119.258" stroke="white" stroke-width="1.5111" stroke-miterlimit="10" stroke-linecap="round" stroke-dasharray="6.92 6.92"/>
<path opacity="0.26" d="M273 107.367C271.795 114.088 271.106 123.049 272.311 129.598L265.082 120.637L253.893 118.396C260.09 116.5 267.664 111.675 273 107.367Z" fill="white"/>
</g>
</g>
<defs>
<clipPath id="clip0_21_203">
<rect width="273" height="157" fill="white"/>
</clipPath>
</defs>
</svg>
