<svg width="88" height="80" viewBox="0 0 88 80" fill="none" xmlns="http://www.w3.org/2000/svg">
<g opacity="0.5">
<path opacity="0.27" d="M23.6856 11.0474L25.6023 1.33911L41.3471 4.48405L39.4304 14.1923L81.8728 22.8068C84.8849 23.4904 86.9386 26.3619 86.254 29.5068L77.2179 74.2197C76.5333 77.2279 73.6582 79.2789 70.5092 78.5953L5.47636 65.4685C2.46431 64.7849 0.41064 61.9134 1.0952 58.7685L10.1313 14.3291C10.679 11.3209 13.5541 9.40657 16.5662 9.95352L23.6856 11.0474Z" stroke="white" stroke-width="1.3406" stroke-miterlimit="10" stroke-linecap="square"/>
<path opacity="0.27" d="M28.279 18.7156L16.3389 16.2889L15.4107 20.8445L27.3508 23.2711L28.279 18.7156Z" fill="white"/>
<path opacity="0.27" d="M78.6509 28.9927L66.7107 26.566L65.7825 31.1216L77.7227 33.5483L78.6509 28.9927Z" fill="white"/>
<path opacity="0.27" d="M62.0208 47.1459C64.0745 37.0274 57.5027 27.0456 47.3713 24.9945C37.2399 22.9435 27.2453 29.5068 25.1917 39.6254C23.138 49.7439 29.7097 59.7256 39.8412 61.7767C49.9726 63.9645 59.9671 57.4011 62.0208 47.1459Z" stroke="white" stroke-width="1.3406" stroke-miterlimit="10" stroke-linecap="square"/>
<path opacity="0.27" d="M57.3656 46.1887C58.8716 38.5314 53.9428 31.1477 46.2758 29.5068C38.6087 28.0027 31.2155 32.9252 29.5726 40.5825C28.0666 48.2397 32.9954 55.6235 40.6624 57.2643C48.3294 58.7684 55.8596 53.8459 57.3656 46.1887Z" stroke="white" stroke-width="1.3406" stroke-miterlimit="10" stroke-linecap="square"/>
</g>
</svg>
