<svg width="94" height="95" viewBox="0 0 94 95" fill="none" xmlns="http://www.w3.org/2000/svg">
<g opacity="0.27">
<path opacity="0.27" d="M46.9958 95C21.0321 95 0 73.815 0 47.9867C0 22.0133 21.0321 0.973389 46.9958 0.973389C72.9596 0.973389 93.9916 22.0133 93.9916 47.9867C93.9916 73.815 72.8145 95 46.9958 95ZM46.9958 2.71462C22.0474 2.71462 1.74059 23.029 1.74059 47.9867C1.74059 72.9444 22.0474 93.2588 46.9958 93.2588C71.9442 93.2588 92.2511 72.9444 92.2511 47.9867C92.2511 23.029 71.9442 2.71462 46.9958 2.71462Z" fill="white"/>
<path opacity="0.27" d="M46.9959 73.3797C32.9261 73.3797 21.6123 61.9166 21.6123 47.9867C21.6123 34.0569 33.0712 22.5938 46.9959 22.5938C61.0656 22.5938 72.3794 34.0569 72.3794 47.9867C72.3794 61.9166 61.0656 73.3797 46.9959 73.3797ZM46.9959 24.1899C33.9415 24.1899 23.2078 34.7824 23.2078 47.9867C23.2078 61.046 33.7964 71.7836 46.9959 71.7836C60.0502 71.7836 70.7839 61.1911 70.7839 47.9867C70.7839 34.7824 60.0502 24.1899 46.9959 24.1899Z" fill="white"/>
<path opacity="0.27" d="M82.2428 76.717L82.0977 75.8464C79.7769 64.6735 68.173 61.4812 68.173 61.4812L67.3027 61.3361L67.7379 59.74L68.6082 59.8851C69.1884 60.0302 81.2274 63.3676 83.8383 75.5562L83.9833 76.4268L82.2428 76.717Z" fill="white"/>
<path opacity="0.27" d="M72.0892 86.7291L71.7991 85.8585C69.4783 77.0072 60.3402 69.8972 60.1952 69.7521L59.615 69.3168L60.6303 68.0109L61.3556 68.5913C61.7907 68.8815 71.0738 76.1366 73.5397 85.5683L73.8298 86.4389L72.0892 86.7291Z" fill="white"/>
<path opacity="0.27" d="M60.7755 27.6723L59.1799 27.3821L59.325 26.5115C59.325 26.3664 61.7908 13.017 73.9749 10.4051L74.8452 10.26L75.1353 11.8561L74.265 12.0012C63.2413 14.3229 60.9205 26.5115 60.9205 26.6566L60.7755 27.6723Z" fill="white"/>
<path opacity="0.27" d="M70.6387 37.5393L69.1882 36.6686L69.6234 35.9431C69.9135 35.5078 75.5704 25.2055 85.1436 22.5937L86.0139 22.3035L86.449 23.8996L85.5787 24.1898C76.7308 26.6566 71.2189 36.6686 71.0739 36.8137L70.6387 37.5393Z" fill="white"/>
<path opacity="0.27" d="M21.6124 87.0193L21.3223 85.4232L22.1926 85.2781C33.3613 83.3917 34.5217 70.3325 34.5217 70.1874V69.3168L36.2623 69.4619V70.3325C36.2623 70.4776 34.9569 84.8428 22.4827 86.8742L21.6124 87.0193Z" fill="white"/>
<path opacity="0.27" d="M9.28329 75.7013L8.84814 74.1052L9.71844 73.9601C18.5664 71.9287 24.3684 60.7557 24.3684 60.6106L24.8035 59.8851L26.254 60.6106L25.8189 61.3362C25.5288 61.7715 19.7268 73.3797 10.0085 75.5562L9.28329 75.7013Z" fill="white"/>
<path opacity="0.27" d="M26.1089 35.798L25.3836 35.5078C24.9485 35.3627 13.7797 30.7194 11.7491 18.3857L11.604 17.5151L13.1995 17.2249L13.3446 18.0955C15.0852 29.4135 25.8188 33.9117 25.8188 33.9117L26.544 34.2019L26.1089 35.798Z" fill="white"/>
<path opacity="0.27" d="M34.9568 27.2369L34.3766 26.6565C33.9414 26.3663 24.5133 18.3857 24.0781 8.51869V7.64807H25.8187V8.51869C26.1088 17.6602 35.3919 25.3506 35.537 25.3506L36.1172 25.931L34.9568 27.2369Z" fill="white"/>
</g>
</svg>
